<?xml version="1.0" encoding="UTF-8" standalone="no"?>
<!-- Created with Inkscape (http://www.inkscape.org/) -->

<svg
   width="210mm"
   height="297mm"
   viewBox="0 0 210 297"
   version="1.1"
   id="svg12"
   inkscape:version="1.1 (c68e22c387, 2021-05-23)"
   sodipodi:docname="logo.svg"
   inkscape:export-filename="/home/alex/workspace/catweazle/logo.png"
   inkscape:export-xdpi="96"
   inkscape:export-ydpi="96"
   xmlns:inkscape="http://www.inkscape.org/namespaces/inkscape"
   xmlns:sodipodi="http://sodipodi.sourceforge.net/DTD/sodipodi-0.dtd"
   xmlns="http://www.w3.org/2000/svg"
   xmlns:svg="http://www.w3.org/2000/svg">
  <sodipodi:namedview
     id="namedview14"
     pagecolor="#505050"
     bordercolor="#eeeeee"
     borderopacity="1"
     inkscape:pageshadow="0"
     inkscape:pageopacity="0"
     inkscape:pagecheckerboard="0"
     inkscape:document-units="mm"
     showgrid="false"
     inkscape:zoom="0.53540264"
     inkscape:cx="-211.05611"
     inkscape:cy="685.46543"
     inkscape:current-layer="layer1" />
  <defs
     id="defs9" />
  <g
     inkscape:label="Ebene 1"
     inkscape:groupmode="layer"
     id="layer1">
    <path
       id="path110"
       style="fill:#0000ff;stroke:#ffffff;stroke-width:0.273;stroke-linecap:square;stroke-linejoin:round;stroke-miterlimit:4;stroke-dasharray:none"
       d="m 130.64728,177.9429 c 0,28.22742 -50.191981,69.83561 -64.914491,69.83561 -14.72251,0 11.599585,-41.60819 11.599586,-69.83561 10e-7,-16.95499 -5.737027,-5.0478 0.892632,-14.34554 4.407687,-6.18155 15.384764,9.34081 21.264086,9.34081 14.722497,0 31.158187,-23.22268 31.158187,5.00473 z"
       sodipodi:nodetypes="ssssss" />
    <path
       id="path1466"
       style="fill:#0000ff;stroke:#ffffff;stroke-width:1.03181;stroke-linecap:square;stroke-linejoin:round;stroke-miterlimit:4;stroke-dasharray:none"
       d="m 317.37891,159.94336 c -46.31039,0 -76.9336,12.98983 -76.9336,46.92773 0,6.83235 1.16205,15.13465 3.39453,24.03711 -27.77918,11.01832 -46.95976,46.55917 -46.96875,87.03125 0.001,4.24702 0.21614,8.48863 0.64258,12.69336 -3.6887,-1.27971 -7.44399,-1.92554 -11.20898,-1.92773 -30.96154,2e-4 -56.06072,42.59526 -56.06055,95.13867 -1.7e-4,52.54341 25.09901,95.13847 56.06055,95.13867 27.30021,-0.0271 50.6195,-33.42381 55.22461,-79.08984 l 35.54101,-34.24024 c 9.88385,-3.45283 19.04437,-10.13632 26.73242,-19.5039 l 51.88269,31.08414 42.52161,-24.04703 34.42688,-40.53239 55.42342,31.0007 60.70795,32.42513 c 7.25536,39.84403 -1.99926,118.51219 22.57456,118.53624 30.96109,-2e-4 56.06008,-42.59406 56.06055,-95.13671 -0.002,-23.2808 -5.03351,-45.75246 -14.14258,-63.16016 15.62189,-12.68042 24.60257,-31.08212 24.61719,-50.44141 h -71.35547 l 70.70508,-9 c -5.18267,-35.69439 -39.64982,-61.11624 -77.92188,-57.47265 -5.29246,0.50667 -10.50782,1.56598 -15.54882,3.1582 -6.63933,-34.49354 -48.8138,-84.7168 -91.32227,-84.7168 -31.39322,0 -55.57339,5.97323 -67.89648,20.39063 -17.58983,-21.14011 -42.31618,-38.29297 -67.15625,-38.29297 z m 209.48242,221.42578 0.0996,0.0625 c -0.0464,0.10336 -0.0926,0.20687 -0.13867,0.31055 z"
       transform="scale(0.26458333)"
       sodipodi:nodetypes="ssccccccccccccccccccccccscscccc" />
    <g
       id="g16"
       transform="matrix(1.2540894,0,0,1.166256,-106.23745,-85.45822)"
       style="stroke:#ffffff;stroke-width:0.82687299;stroke-miterlimit:4;stroke-dasharray:none;stroke-opacity:1">
      <circle
         style="fill:#0000ff;fill-opacity:1;stroke:#ffffff;stroke-width:0.82687299;stroke-linecap:square;stroke-linejoin:round;stroke-miterlimit:4;stroke-dasharray:none;stroke-dashoffset:0;stroke-opacity:1;paint-order:normal"
         id="path3083"
         cx="150.69714"
         cy="176.67119"
         r="13.520945" />
      <circle
         style="fill:#ffffff;fill-opacity:1;stroke:#ffffff;stroke-width:0.82687299;stroke-linecap:square;stroke-linejoin:round;stroke-miterlimit:4;stroke-dasharray:none;stroke-dashoffset:0;stroke-opacity:1;paint-order:normal"
         id="path3663"
         cx="150.69714"
         cy="176.67119"
         r="9.1874762" />
      <ellipse
         style="fill:#0000ff;fill-opacity:1;stroke:#ffffff;stroke-width:0.82687299;stroke-linecap:square;stroke-linejoin:round;stroke-miterlimit:4;stroke-dasharray:none;stroke-dashoffset:0;stroke-opacity:1;paint-order:normal"
         id="path3187"
         cx="150.69714"
         cy="176.67119"
         rx="3.5947077"
         ry="4.5993781" />
    </g>
    <g
       id="g345"
       transform="translate(138.15258,23.877731)"
       style="stroke:#ffffff;stroke-width:1;stroke-miterlimit:4;stroke-dasharray:none;stroke-opacity:1">
      <ellipse
         style="fill:#0000ff;fill-opacity:1;stroke:#ffffff;stroke-width:1;stroke-linecap:square;stroke-linejoin:round;stroke-miterlimit:4;stroke-dasharray:none;stroke-dashoffset:0;stroke-opacity:1;paint-order:normal"
         id="path3373"
         cx="-14.784994"
         cy="93.114479"
         rx="20.466799"
         ry="20.6544" />
      <ellipse
         style="opacity:0.9;fill:#ffffff;fill-rule:evenodd;stroke:#ffffff;stroke-width:1;stroke-miterlimit:4;stroke-dasharray:none;stroke-opacity:1;stop-color:#000000"
         id="path62"
         cx="-14.784994"
         cy="93.114479"
         rx="15.091829"
         ry="15.077254" />
      <ellipse
         style="opacity:0.9;fill:#0000ff;fill-rule:evenodd;stroke:#ffffff;stroke-width:1;stroke-miterlimit:4;stroke-dasharray:none;stroke-opacity:1;stop-color:#000000"
         id="path220"
         cx="-14.784994"
         cy="93.114479"
         rx="6.5932102"
         ry="6.7997155" />
    </g>
    <path
       id="path1127"
       style="opacity:0.9;fill:#0000ff;fill-rule:evenodd;stroke:#ffffff;stroke-width:0.273;stop-color:#000000"
       d="m 125.96054,145.57086 c 118.4966,-29.89745 9.73682,18.73489 -1.20667,17.51782 -15.88927,-1.76712 -24.03397,-9.44727 -24.03397,-14.74975 0,-5.30248 4.58594,-9.60099 10.243,-9.60099 5.65706,0 14.99764,6.83292 14.99764,6.83292 z"
       sodipodi:nodetypes="sssss" />
    <path
       id="path1127-6"
       style="opacity:0.9;fill:#0000ff;fill-rule:evenodd;stroke:#ffffff;stroke-width:0.273;stop-color:#000000"
       d="m 74.064406,145.39981 c -118.496596,-29.89745 -9.73682,18.73489 1.20667,17.51782 15.889272,-1.76712 24.03396,-9.44727 24.03396,-14.74975 0,-5.30248 -4.585928,-9.60099 -10.242988,-9.60099 -5.657062,0 -14.997642,6.83292 -14.997642,6.83292 z"
       sodipodi:nodetypes="sssss" />
  </g>
</svg>
